<svg width="25" height="25" viewBox="0 0 25 25" fill="none" xmlns="http://www.w3.org/2000/svg">
<g id="&#208;&#154;&#208;&#189;&#208;&#190;&#208;&#186;&#208;&#176; &#208;&#180;&#208;&#187;&#209;&#143; &#209;&#128;&#208;&#181;&#208;&#180;&#208;&#176;&#208;&#186;&#209;&#130;&#208;&#184;&#209;&#128;&#208;&#190;&#208;&#178;&#208;&#176;&#208;&#189;&#208;&#184;&#209;&#143;">
<path id="Vector 91" d="M5.275 15.5375L4.74467 15.0072L4.60725 15.1446L4.55386 15.3315L5.275 15.5375ZM17.8125 3L18.3428 2.46967L17.8125 1.93934L17.2822 2.46967L17.8125 3ZM21 6.1875L21.5303 6.71783L22.0607 6.1875L21.5303 5.65717L21 6.1875ZM8.4625 18.725L8.66854 19.4461L8.85541 19.3928L8.99283 19.2553L8.4625 18.725ZM4 20L3.27886 19.794C3.20403 20.0559 3.27707 20.3377 3.46967 20.5303C3.66227 20.7229 3.94415 20.796 4.20604 20.7211L4 20ZM5.80533 16.0678L18.3428 3.53033L17.2822 2.46967L4.74467 15.0072L5.80533 16.0678ZM17.2822 3.53033L20.4697 6.71783L21.5303 5.65717L18.3428 2.46967L17.2822 3.53033ZM20.4697 5.65717L7.93217 18.1947L8.99283 19.2553L21.5303 6.71783L20.4697 5.65717ZM8.25646 18.0039L3.79396 19.2789L4.20604 20.7211L8.66854 19.4461L8.25646 18.0039ZM4.72114 20.206L5.99614 15.7435L4.55386 15.3315L3.27886 19.794L4.72114 20.206Z" fill="#5DAAFF"/>
</g>
</svg>
